<mxfile host="app.diagrams.net" modified="2024-04-14T14:16:53.994Z" agent="Mozilla/5.0 (Windows NT 10.0; Win64; x64) AppleWebKit/537.36 (KHTML, like Gecko) Chrome/123.0.0.0 Safari/537.36" etag="pvIm_dhfnIM4nprobLGZ" version="24.2.3" type="device">
  <diagram name="Page-1" id="PqO4riXgr1fv89FTXZvv">
    <mxGraphModel dx="1050" dy="583" grid="1" gridSize="10" guides="1" tooltips="1" connect="1" arrows="1" fold="1" page="1" pageScale="1" pageWidth="850" pageHeight="1100" math="0" shadow="0">
      <root>
        <mxCell id="0" />
        <mxCell id="1" parent="0" />
        <mxCell id="cxmttkt3zN2YbT3HG3Pw-1" value="" style="rounded=0;whiteSpace=wrap;html=1;fillColor=#f5f5f5;gradientColor=#b3b3b3;strokeColor=#666666;" vertex="1" parent="1">
          <mxGeometry x="80" y="130" width="700" height="380" as="geometry" />
        </mxCell>
        <mxCell id="cxmttkt3zN2YbT3HG3Pw-2" value="" style="sketch=0;aspect=fixed;pointerEvents=1;shadow=0;dashed=0;html=1;strokeColor=none;labelPosition=center;verticalLabelPosition=bottom;verticalAlign=top;align=center;fillColor=#00188D;shape=mxgraph.azure.laptop" vertex="1" parent="1">
          <mxGeometry x="80" y="310" width="303.34" height="182" as="geometry" />
        </mxCell>
        <mxCell id="cxmttkt3zN2YbT3HG3Pw-12" style="edgeStyle=orthogonalEdgeStyle;rounded=0;orthogonalLoop=1;jettySize=auto;html=1;" edge="1" parent="1" target="cxmttkt3zN2YbT3HG3Pw-4">
          <mxGeometry relative="1" as="geometry">
            <mxPoint x="200" y="350" as="sourcePoint" />
            <mxPoint x="220" y="320" as="targetPoint" />
          </mxGeometry>
        </mxCell>
        <mxCell id="cxmttkt3zN2YbT3HG3Pw-3" value="&lt;b&gt;temp area&lt;/b&gt;" style="rounded=1;whiteSpace=wrap;html=1;fillColor=#f8cecc;gradientColor=#ea6b66;strokeColor=#b85450;" vertex="1" parent="1">
          <mxGeometry x="170" y="350" width="80" height="40" as="geometry" />
        </mxCell>
        <mxCell id="cxmttkt3zN2YbT3HG3Pw-4" value="&lt;b&gt;local repo&lt;/b&gt;" style="rounded=1;whiteSpace=wrap;html=1;fillColor=#dae8fc;gradientColor=#7ea6e0;strokeColor=#6c8ebf;" vertex="1" parent="1">
          <mxGeometry x="260" y="320" width="80" height="40" as="geometry" />
        </mxCell>
        <mxCell id="cxmttkt3zN2YbT3HG3Pw-11" style="edgeStyle=orthogonalEdgeStyle;rounded=0;orthogonalLoop=1;jettySize=auto;html=1;entryX=0;entryY=0.25;entryDx=0;entryDy=0;" edge="1" parent="1" source="cxmttkt3zN2YbT3HG3Pw-5" target="cxmttkt3zN2YbT3HG3Pw-3">
          <mxGeometry relative="1" as="geometry">
            <Array as="points">
              <mxPoint x="140" y="360" />
            </Array>
          </mxGeometry>
        </mxCell>
        <mxCell id="cxmttkt3zN2YbT3HG3Pw-5" value="" style="shape=image;verticalLabelPosition=bottom;labelBackgroundColor=default;verticalAlign=top;aspect=fixed;imageAspect=0;image=data:image/png,iVBORw0KGgoAAAANSUhEUgAAAI0AAACGCAYAAADgmQlmAAAAAXNSR0IArs4c6QAAAARnQU1BAACxjwv8YQUAAAAJcEhZcwAADsMAAA7DAcdvqGQAACPWSURBVHhe7Z15dFzlmeaf2vcq7bslyxtesNm3EAKBBLIAIZ0mdM9M9/TJH31mzpzOLH/MnJnJOT3T58xMzmS6p9Mkk2UyJKEbQhKgE9aEACZgbGxjg1e8yZJlyZK1lFSqfZ/3+ao+U4iSrKVUKsn1wPW9dask3br3d5/3/dZriEajWVRV1TxkzK+rqmrOqkJT1bxVhaZClJUkIZbOIpbKQlYVrWpOs4xKZQB/NIULQVnCWUwlDWq/2WhAjd2ANrcJHW4j3BYDZFfFqArNMognPJLIoM8fxsHBMPYNRHFkLI1A2gyz1QGj2YJWrxnXN1twW4sZG2pMaHAATrMBpgqgpwpNmcWTnRCLOTIcxndeO4nXjw9jNBgDMmI7JhN8revgrG+Bxe6E2QTUiuPc0W7G5zsN2FpnQY3DDJNwY1hGdqrQlFkhcZhjwyH8118fxqF+PwLhBNIEJiOXQUgwmizwNHfA2dgOq9OlwpJDHMZpAa5rNOGeTgtuFgdqcRuwXNxUoSmj/KE49pwdx2Nvn8PbPaMIRhJiMAIMrwAzYUpem711cLd2wdvYmtuXV43NoHKc9TVG3NRsxnVNZrQLPISqnKpCUwYRjHP+CHb3jOOFQxfw6gcjCCdTyKYJjJz+QmjSacmErfC0rUVt18bcvgIxNLmtBqz1EB4TNtUaZTFhnc+IVld5CsNVaMqgAX8Izx0exnMCzMFzEwjGU7k3lMsQmjw4FKGR1562btRu2JbfObNaxXm21Rlxg7jODeI+zU6D5EFG2CQfWipVoVlCpSVPmYwk8cx7AxKSenHo/GT+nbx0LqNdhponNFoecZ/t9Sbc2WHGza0StsR17GbAKuZjKHHWXIVmCTUyFcO3d57Bz/f1Y1i2CdFHdMlpZFuDs0BoiAWTZrNAsk3g+ZTAc0ebCZtrDDCbhZ4SqgrNEog5TO94CL8+NIzvvn4ao6EEksxfpquE0BSK9Tk+SZo7PQbc2GzCbW0WbPLRjYwwGhef91ShKbHCibQKQ785dgEvH72IY4OBS+nKxzQdGhWucnAtBhotlqqaJMfplKT5usZc4syKwk6PCdZF5DxVaEqopFzvt06P4lfvD+K1D4ZxdjScf2cGLTE0hVoj4LC4fpWUtrY3SKmrzoQuKa5bpTg235ynCk0JxFQllkzj5EgIj0o4eu34MEaC8fy7s2g6NBocWZcaGi2WqtrdkITZik+1GtDhtaj6H6dFcp85NlFUoVmkePKiEpLOjIbw7585JEXqSQRjydybl1MhNNxmPpPXUkGjRTxqbFl8psuKT7cbcbUU2xvd1jk1jFahWaSCiSz29gXwt68cxf4+P0KxlDjPHE/pMjhNoVhRSIepF3iubzLhkc12CV25tq3ZVO1PswiNhpN48cgQvvvaCbw7X2CKqcytkOy3Q+gHQsCbFzL4zvtxPHM6Af9lfKQKzQI1MBHB84cu4Gfv9OHtMyMIRJOLA2YZlZLDHhNQ9g2n8PSpBA6PpzAlMM2kKjTzVCLNdqQwXjo6hCfe6cWu0yNzz2EqXHFJqQ6NpfFqfxJ9U2mV4BdTFZp5KCVnkTW7v3x3AD94owcH+ycRkVLTatMrvUkcHkkhSgsqoio089BQIIoXDw3hR2+dRc9YGPFVCAw1JcY5FErBHynuoFVo5qjjQ1P4ye4+PPr6KYEnpsLUysxgLi9+r7FIWhLi4jdFFZpZxJMXlyLGW2fGFTDPHhxA73gkB8xqJSavSDKLcEKK/0VUhWYGZYWKWCKF106M4vE9fapp4MRwMP/u6lcqk1E5XDFVoSkiukhIihJsbHz0tZN47tAgzvsj+XevHGX5XxFLrUJTRBy0dnQohG/97jTeOTuOqejqKFLPV1lxm3RB04ZWFZppYg7z6vGL+B8vHsPOkxcRT63OEtJiVIWmQKw+/9n+ASlS92DfOT+CsdSqT3gXoio0Ig5e6x8P4cm9ffiHd/pUSApEEvl3q5quKx6ahISjwamYGinwo9+fwv7eMUytkmaBpdIVDU0qncGQALPzlB+Pvt6Tq4PhqPyqZtUVDQ1bqp/edw7ffOEwBiajqtKuqstrUZ2wRsMp7B2I4NCFICZjWXhtJmxrcuCmNU6s8Vnzn6pMHRoI4JkD5/HSkQs4NRIuPlpgqTW9ExZVgtEIpdDdrWk8stGET3a6PjYEZkHQsMf9wQsRvHImiP0CDXOCaDILu8WIFrdFgXPnWg9u63SiwWWB5XJdwcqoeDKD3T1jePrggOoE3u+PSLF6mRzmSoEmmkxj7/kQfnF0Ei+fmsJwMD/EtEB0nOvbHPjSVh/uXu9DV41tSYeJzkWs2WSJ6OD5gGpH2nniIsbCy1xCWqHQzDmn4XeKyR157GIE/3BoAi+dLA4MNRVP482+EH6wb0w+F8SZ8RgiieKfLYcIzJQAwz683/99j2oWWHZgZpHJZIRRlkrVnI6M90BcYn7/ZAzf2jWqHOZiaHYI2NZ1YjSOv9l1AT/YM4jjQ0Gk9d1UZiVTabzT68cP3urD84cvLF84moPYTdjrscPrtuX3VJ7mBM1kNIU3eqbwH17oxS5xkEBs7id9IprBL4+H8Y2do3hSHIo/yw7N5RJ7nz393hC++0YP3jw9kt9budrebMOfX+fFFzY483sqT5eFpmcigWeOB/DD/WPYcyEhpaT0xweyzyI2r/NnDl6ISbgaxf98axgfjCx98slj9EsI+j87T+Oxt89iP6f4iC1fiJxVYi9epxl/sMWFP72xAbd3e9AgrytVs0IzHM7glZ4IfnlkEm/3hxGI58LOQhSUPOfQUFR+lx8/PTCOnWcmMRyI5d8trZJiZax3eWJfP36+vx8H+ycwWaHNAh6LAZvrzficOMuDW2pwc5cPzV47LJxwr0JVFBqd9O7sjeDXHwSwfzAiye3inYGucz6QxBOHJ/D/3h3Fb08H5HVCJaqlkvobExG8fHQY33vjDE5eDKoRkJUon9WAbY1WfGGjG38oJc3NrR647FZYrVaYTSsMmqSc+AFxgR8fGMXecwE56aW19YloGi+cjuDRvX5xnglcnIqr6vvFskNg2CzA4SXsy9s7Fq7IZgHWWrnEYa5pNOOhrV7cv60eXQ1uBYvNZoPD4YBFtitVRaFh5d3zJ4JqfM9S9rg/ORbHt/eM4OsvDeKD0cXnOecm43h0Zw/+5rcncW68cnva2cwG/MEmO/7kGi9ubHfAZbPA6XTC4/HA6/XC7XavPGg41boOSaULHB8XnWE8ksauc2F8c+cAfn10BIOT87/YdJP3z0/i26+cwIvvD2A0FJ9Xsl4u2S0mCUc2/MWNHjywpQ6b2mrh87jhcjllccGZX+g4rKupVH3syJhfpDNppNLpRYeLuUjNSyfh6vd9UfzwXUmS35vAgQvs8Z//wGXE4bD7+vxqLNIrx4Ykn4kqGCtNLW4z7upy4JGrffhUtxed9U743Dl3obMwJNntdtgIjKqBrZyml+kqCo0ZGXR7DWqiv3KIl3hCSma7B+J46mgAT77vx+7+KUxJEXm2CkEWqfee9atmAdbyDkqJaVkaHi8jzjxFYB64yoNPrXWhyeuAQwBhSCIwdJlLwEgCXLm45FTUA+1GA25qMqHBnpv4r5w6LXnOz6VY/r13LmJPfwhjoVRR52A7Eidy/uk7fXhCltFgvKIcxmgwwGExYo3HjPvWO/HlLT7c2OGGU/IXJrsaFjqMdhkFTJlnjliIiiJhE4e5uZnz0xpQswz5GPOcl06F8fUXB/C7nil5nfpIbkXzefXECL6z8zSePXA+1/CnG/8qRHa52zbV2/Afb/fij6+pR3eDU+UqBIUhSeUw4jQalpWkotCQdn6Rr3ZncUerETX28n8p5jpDwRT+19vj+P7+CRy5GFOhM55I4rHdvaqmd/+ZMX4w/xMiDQ+XZVSTOPQ9HSb8+bUubG7xwmW3KGAICGHhQrexWCwlmW2z3JrxiAlNp8+M+7uyeKA9ji5HeWtU6Rms2e31x/DLI+P437uG8d09Q/jR2314/M0zONI3jnBUjonuohf1g/ntZQLnxhYrvrrFiQc3e7C52QW3PecuDEcsTtNl6DCEaCUCQ83oNPxSbqcD2+rN+GyHAfd2ZLHZl1UzYJdTiVQaPeMx/Ob0FH56cByPHwrg8PkAgmG2aQgYChL5oFqmb3Nj6cVnMPGROnd12STZdePujbXY1u5DjZSOmK+4BBhCo8ORdpiVkL8U08cQ4BfhF7LmaybdLgc2Nthw31orviius9aTxTJEK1UsPzqawuFxI2JmB2CVGGCQw78EDhf5oAIlD0vhe0sk3kQtTiNubbfjn2zz4Y5uH9bU55JcLnQWneiuZHcpVFFo2FPLnodGxWGHHV2SET+0zoQvdmbR6c5CCgbLI04/WdsG+Jok23TJDnnN3m75Hm9KXOmSFMHRS4nFOXj5DII711jwtR1ubG11w+P4sCmADuMQd2HxeqXmL8VU9FtocGinvFsIDk+E3WLGl7pNeFAcZ4N36e7eOckmwLhqAYc7v0NEcGaCg0CVGJwdjWb88Q4vHrm2Ee11Ttislpw75/MXr7iMR7ZXEzDUrN+E4PAk6PYQdUKkJHBXhxlfWW/ETU3LGJOZDzBEeRuB+nY5WEtuXyEcOjSpJf9auw63FyCLyYhWrwNf3uQQYGpwx7oatPjk5pIbjOdIFafz54qw8AZcqbnLTJoVGn5ZxmFltfkYTddhlfgtzUY8tBb4LK/Xct1ERkmuLDYJUx6BpyG3TWk4WBxXsOT3XVpzY/5iv6gNXvnem+z44iYfrm1zo9Fjh1PCN9uMdDjSye5qg0XrspebX5wngCeiMFy1uk24tcWAh7qBW+Rmr3OYpBSxTPTw7zprALcsdglXJrm62lE+4ioFsGh45ghQncOIa5qsqnb33nVObG5xocZlv3RDMRTRbZgLWsShVysw1JyusgaHJ0ifJK59djO21xvxtauAG5pMcmLnPr9+ycWL5KrLOY7TK/aXr8ouhKaQD+77CFDFxe9TK8Dc1GrFl7d4cP+2OrTVOuG029RNxJDEheeEr1ezw2jN2Ro0ODw5brmreKLoOA6rCVvrDfijtQl8ohmosS+T22hZpTjulQOpk7ippR1HbROW/EJeNDxFxPajOqcFD66340/y+YtHcjreMCp/Kcj1po8NWs2a9xVmTTFbY3lX6RpOnrSNtVIcb4ngM00xNLqWuS2FNzrzmyaJnTaBiHd+IThaBEYv+v2887iEgR11BnxtuwNf3Fx7qWcdbxq15G8a7ltpbUeL1byhoePwriqsi+BJ9El839Rgxz1yg9/fGscatzjTcpoO8xxduvJI2LLINqGYXqejpeERNThNuH2NHf9shwe3dbnRXivO4rCp78mbhDcLt5m/EJjVHo6ma0GXtRAcnSBzqfVIgthox2fXGPBAZ0bAyT1faNnEi8nEmEmyh3U6kutoOC4t8rn84rCasbVBkl1JdO/fXINb1tZI/iI5izOXx+nchTeLVUL1lQgMtWAvuASO2DObHDQ4PrcDG8RxHpTi+N1twFp3Bg7TtLBQbjFUOQUaT71Q7My5kA5FsvCy28xGAd6GL2x04aEtXtzS+WH3BcLCPI7bvEmuVFi0FhVANDi0aQ0O70K+bnDb8Mj6LO5tiaPblSp7Q+fHxGvMJLmuIxe2WCwXYIyyOCWOdtU78PBmB+7Z4EVnXa4VWucwrINR3/EKzF+KadGXcrrjsHKL8LCkVeOy4XPddjy83ojr65fZbSiCI8eK+jWAT3IdgcdrN+DmNgv+3U0u3LTGizo5ZsLB0EuHsYmzcLsKzIcq2f1PcNgwxxOt2l1k4etGjw1XSynkalcEiAZzIWG5xZpkuyS0zW24dlMHHtjiw8YmN2o8+Yo6Ofaa2tpck4C85g2xmtqOFquSnQk6Du9EJogMUTppzJis6Auk1EhHhCeBeDhXelluSXhKmhwYTLlwcMqF8YRZjOfDjt4qzAr0rN0lMFdyDjNdJb99NDw84QmjDe9fTOB3Z8M4OBgFYgKMAkdcpwLAiaYyOB0AXhw04/lzWZwMWQQkCUdy7IS/6i7FtSRnhZWt4WQW7w2G8dT7Y9jVE0BYTbMqb0Sm5GrJlVKOUxmzOHD4zN+fBp46mcShsYwcu7gKO3hVVVRLcmbC8RT2nx3DN39zAu+cGUOEwNDe9Z1LcCYuAKGx3OsK0bPHJvHN3w/h+VNTarr7qoqr5NCcHQvhx7t78a9/8T5ODk3lplnV6QDBYQmEa9aTRCTPmRzKv1kZOj6axN/tHsF/fuUC3h9Nqaf6V/VRlQyajEBweDCAn+3rx+N7zgk8EZUzqHNOSAoXOg7XDE/REBAYll9QGaEqIpT0+BN47sQE/vvrg3jmaG5Wi1JOh7LSVRJoCMx7/ZP45YF+PHuQ8+tJ+KE+Agtf60X+0aEqJaErLDlOcBxISnJRAVJT3weS+O3JCTx2YAzPHJ9Qs3dxzp6qSgANx073Skh66sAAnn63ABitQnAuvc6vLzmOlKSmBJqIlKySlTNjFeF5qy+Ex94dV45zbDg84yP6riQtChoCw0cOP/6OOMyB8+gblxJRMRVCQ00HR4vghPy5sFVB4eDYaELN3PWDvRdxbCSKqIQwPdjhStSCoWFIOi45zF+98AF++FYvLgYvE1oICJNgnQirfbIQmsJ9rMcZH8wVyysInLEo8PyZKP7TqyP4hZSyApU66WMZtCBoglKk/vWhIfy3l0/gt8eGEIgm1NjrOUs7DNcaHA0P63IScoWCEzlwKiRBZgl8KppWz4H4213Dqmj+Tv+UmjXsStO8oCEWIQGGkyA+sbcfb54ZVVN8zNsQtKtoaXA0TPxLyZj8MXGdmJSu0pXx/KWMfFE+EJWTav/qg0n8WELW706MYzggkF9BmjM06oSJJe88OYqf7T2HXT1jCMzwhPg5SblMflGvC/YpcERsbmDJqoJqj7X6J1N48eQU/v59P146NYWzE5U1P85Sak7Q8GRMhJN4V4rVf/f6KbytgFlkKUfDoaGhCsHReY5qryI44jiZygoF42KGr/cn8L0DU+oBIwNTCTVf4WpHZ07QTEZTePW0H3/xxAHsO5t7IGjJpAEppkJwmOPEKu9h6rFkGseGQvjrN4fx/b1jOOOPS6ky/+Yq1WWh+WB4Cj/d3YvvvHoCA5MRJFn9vxTSgMj/aq0lbuRyO3BjuxX/amsW/3Y7UGfPv1chorOwJvnJw+P4y98N4qkjflwQ11mtmhUatiM9994gnj04gOMXAmqe37KUggvAaXabcPdaG76y1YO717lwZ5sBX10HXFVngs0yg0Mtg5jOjIbS6nEAPznox/89MIl9g+FVGaqKQsOkl0XJFw8P4YUjQ6qWtyzPa1JOk1vMZiM6aqz49Ho37tvowU0dLnTUOtDqNqpJlj7bmsZmXwauZR0n83EFYmkcGIzg6WN+gWccr/dMISDhfTW1XRU945zMmaA8Ky5zdDCg4nZZRGAkHDmtJmyos+LeTR58aVs9ru3wqXFVurN3h8eIz7TEcW9LAptqsrCbDcqcKkWcvevMaBRPH57Ad/aM4s3eIIaDyVXTYl4UGhatf/HuefSOhsraSMdHXdrlnw21ZvzZDif+7Pp6bGh0wu38cGwVF4LTWuPE3e0GfLkjjrU+E4SzigKHCiYyatq3v9o5jOdOhQWctJpHcKWruNNIsts7GkascObMMqjNYcBDG234lzfW4NbuOtitFgUIQVEjG30+tegO3/UeB25tteDfbEmozutOS/4XVZhOjsfx6O4L+OtdQ5LnVO4zG+aqj0HD2JsVaDx2M8o1dzYnmrhZLv4jO3y4f3Mtrmp2q0fYOPMd1NUwWFlz7BEXPRTY7Xahzm3H5noL/vmGNG6o5+Nw8r+0gkR3OT+ZVH10viVF88cOjKu5kleq6RSFxmLIYr2EiKWe5p6zSjW5LPhkhxUPbfHhk2s9WNfkVsN7FRTiKIRGD8DTOQ1h4j6OseLDKHxOK65rzk1fe2tDCg3WymtMZDeLoakU3j4Xwk8OjOHHkiR/MBpXj0tcaSoanmySV1zbYkOL16aGqy6FbGYT1njNuKPTji9v8eITa71oq3GoSSFzLiJuIlAQDg6848gAvRAcjhggPPwsRz5wgP5trSbc257FbY0ZtDgr82KEJM85OBRVz9Lis67Y+X7RtetlVlEirALKNW0e3LjGgxaPVc2TW0o5pLTD2ULvWuvCw5tduG1tDTxy0Zm7EAIOgyUsHNnIQXjFxhxxPBI/r8cpERyPJMw3t9vwpXVm3NWSVaFqueZYmk3sEXDWzz46I3hs/zD2nJtSte4rpVheFBo9dumrm524o8uFGkdpM8xtTVb86Q43/mi7D12N7tzoTIFEA8ARjQRmtlmleHxqOLB8jokxAVJDaQW+7fL7v7rRiPva0/BUaHLM2kB/KIWnjgTxl2+MynoC8eTKAMf0jW9847/kt5V40Ol0GolEAtl0Es0OoNZmUA8uHZXkbaGyclZMuYL3dVvw8LY6XC2/2Ccw8mLr0hHX9rzDEIq5jGrkZxiyCBDXfM3vYDNm0e3JueZYDAhUWgTIs0FG2E/nxMUIjo0l0OqTUCu55AcTGey5mPvMcqjbk8XV9UZ0il3zvBaqKDTslcda4UwmDYdJbN5mhFvuWN4J/lgW86264RNJ1tdZ8IUNDnx6nRcbG13wSvJKd6GzqBkxC8KRvvhzlQan8OcMcvwOAafeLgDJ3w+lBJ5oBd3FBYeSkiR5Sm7IQSH79DgfBJvCUMSAIxNLk0/ORfOCRounXlklT76AU+80odZugD+SUpVWc+2w1iA/s6PZhk93u3FnlxNr6yVnkRBCYOgsXDMfYUiaq7sUkwaHa/17CL/HnJHjFseR7y03NAJJ0/x6GZZJGTmmcCyNHn8c/mACIzET/Nn8FLfLoHlBw5OtLwB1CRxJXjvkF/Cpc345+4F4ZtZqcV76BqcRtzSLw2x04c51PtS5pTRmyzmMLkpzehKWhhYDjJYGhseuj5/guE1pNNszkhgbMZIwqyHD7CO0rOjwuxYeALe5yHEN+JMYS0qe5ymYjb3Mmg2aj77KiydfJ6faDRg6WEP7uc11eHCTG1vqLerZANOvM1+zDdFtNeC+tXbJX6QU1iHuYjMrOHJ1K7kZptRafjf/1mKB0eIXZALNcMd6HpVYy7E3uUy4rTmDf7o2gY01RtXQWaI/uTBVoNvNVTOGJ4oXgHeuvnsp3rmtUgxvcAgw2bQkmUbEUh/Gqlpx1GsbTHjoKic+L4B1NkiCyxm9BRJd/U9QdLK7FFJOKQsnwzby+LkmTPIVaqxpNFiyGE8YJVQZVKXbsmg6sdppKFnb5JxVqtMYotHZs0OGp1QqhXg8jnA4jEgkAvkZTIRjGJyMo28yidMjIYRTWXjE/tu8VvlDNtWtodFrF3fKPVGNy6VwlK+sK5W7zCQCnkwmEYvFEOUixx6JxjAWiuPISAI7h4zYP27C6HL0C1dhv2Cb8Gr3kW1PXQ1q25pzr5dBd7em8chGEz7Z6VKRoFCXhYYqBIcnPxwKKXDiUiwPxZIYlcSNsyww7/HazXCzKC25iwoTAosqSsuaDyg3511rqYHRKgRHL4TfH4ziuD+L31804s0hgyqWl1WF4WmFQVM0p5kuneNoANhgqEAQ1/A5bVjfxGcdedDd6Ea9xw5Xfgp4fu5SSJLXiy0hLUQqLAm8Kj8ryKXqPA7c0CI5WocBtzdn0WhNwWy47P1TOi1nPrVIzQkaSoPDC88TrxsTuc0ElxfmI87CRFTDInBNj4vlFP+2SsLl2HgsGhz209neZMIj3Wnc3hBHk72MDz8r441Tas37FGlw1KSMAo6voH8LIVKTNMo+BQ5DUj5/qQTR5XhMGhzlPvK6u96Or22z4YGuLNrK1dC5gktPC7qa+uTrB2PV1tYqUHw1NQoitV8g4t1dKcBQdEtCTMD5MAzVT0e2HQJRkyTt7An4ULcBOxrK4AKV2JI6Ry3oivLkEwa6DsHQAOlQxAtT7txlruIx8diUWzKECvTszOVyOtApJb472424b00ZwGHyu0K1KBvQ8HAhKLpkVEnuMpO06xB4nZvxGQidXjM+0WLAFzoNuKbRtHQ5zsplZnHQrHQRbpUgi+MwTGmn7HAbcVebAX+4zogur2FpHwpCeFYYQFc0NJR2HAJDcLjQfeodRnyyOYWvCDid7lzTyJIELIapFZYUX/HQUASH+ZnOcXSC7LKaVffRr2+K4NOtWbjsJezRxUSYFHK9wpLiKjR5acdheFLhKp8ge+0mbG2y48HOFD7XGkeds0Sxig6jDaYCmbEb0rIU78ZQhaZA2nEUOCwR5hNkjo64utGCe1rTuKc5iRZnLlwtTpXtLnycNJdiqkIzTUyOFTgCjQpXnlw3VJ/Lga0NFny+LYk7mtKS8whgK7iuZTa5TVk08EmOtuLfrwpNEakqBAGHbWsERz/Dyud2YmODDV9ZE8eNDQY0Oeg4C0xiK7SehkOj17sS6HYl4bMUP8YqNDNIhyoNji6Sq7qcehf+xeYkHmyLoMO+wCnkdCJcQSIwNdYsPtMQFHCSM9a3VaGZRYU5jn5qHktXHNXZ6OEDXk14uDuDGxoWMOa9MBGuADFHa7Ml8LCnF9u8CfWgfn7/YqpCcxmpUpWAoxpoxW30UBv2RuR8Obd32HB/lwHX1mfm95zOCgGGFZet9jRu9gbxYMM4bmgE6iUDtlnMMMn3LuY2VWjmoELHITAEhyGL2+0+G25uNuFzHVlsrsmqh8DPScscmvjnW6xJ7HBO4VNeP+6um8ItNVHV29Jhy42Z10/Vm6459dyr6kOxFyMHE4ZCoUtdX8PsQhqM4e1h4OVBI05PAqG5pDq6JphrvXCXrJei5x5zFta9OI1J1Foz2O6OYqt1Ap3uDGqcVnVz6NxN3xhVaEoodn8lMASH3Ue5zX1vXAD+sTeLg6NZcEKIGQtJ04HR2xyJKCtPQ23JoKGrEBivJYMuSxDX2f24tSEJj92i8nG2+rNik+6im1EIDF8XUxWaBUr3m2af40JwOHz5lD+D14eM+M0FMwKRWZ4ZoZNhDc4SQKNgkRLR9Y4JbHeF0eVKqYkRHJLLWMw5WC5VaAoouh2O+2ZKhKvQLELTO9yHgkEFzlQshR5/EjsHUniy1zpzzquh4Vp3LOci/y82PNkFiiZLAlvsQWxyx7DGkUKdhCS3hYl9bliSdhcCo54/LtuEZTZgqCo0i5TOcQhOYZ4TjMbVdCJPn7PiXb8pNwZeT0fHM85rMhM0snjq5+80/JV0kDZLFF2OGNY5ErLE0GJPwWmVpFY+oF1FASNr1kMpUPhalpnqZgpVhaYE0uAQFi4ERw2ViSVwdjKNf+wz4sAYMBzJ5gbnERLeySWChiHIyfH2ljjaBZAt9hA2OQUWRxoOgUWX/ugudBY12YKsVQlJFg4m5GfmAgxVhaaEUqEqkUCsABxC1HMxiJeH7dg1asEAZ/jUdYHFoKEITe3lw5NEGtiMGXjNaQk/cdzsCeAqRxS1dqOamo4Q0FH0okMRHYbQLLRLbhWaEkuDw3BFeJgghyNRTEYlx5GS1dO9RnEfOeWMFTNBI1I5TXNT/lVxrXMmcZ3Dj232ANolZ/G4pIgs+835BFe5CnMVgYQVdQw/3LdQWLSq0JRYl3KcaeDE4gkMh5LYM5TGz88a0T8lOU6h4xRCYzbmoKlvyL0ukNucRZc9jm02P7oFmlZHFjWWtJqAm6DonEXlLQII99FVDOI67MO9WGCoKjRLIAVOJoNUMomIQMMx5KpoHo1hKJjEbgHnV5LnnAtmoR5oo6HJXwlXrRdun0+VaLRY8lljjWCjPYpN3hSazTF4LBk4LeIq+dKQdhau9UKHISwUYVksMFQVmiUUx5GzKK6K5DrHicXhD8fxm74U9owY0BMyIxA3IJlM53IPm1WAqVGzRnBq3lqTJLSmCNZ7gfWS3HbZE6pLBvMVAqCchK7Cn5WF0HCtSkSyzDW5nY+q0CyhdKji/IUJTkKQT5DlnCMYDGLvqAn7J2zomTIgkMjIxXfD6nLBZJH8w5BBjSkhiW0Q260SimptcNtzE1dqWJSbCDAsNmtQuI/rUjjKTKpCUyYRHlUMl/yGwNB9mDSH4yk1F+BgxITJtBVTiZQUk01osiTRYYmivVZsJS+GIMKhSkACB12FgGiAuF0OVaEpowrBYUUgt5MCTjKVlmK4ARnIIu5El+AMFmZJcsymXB2LBkMDw8o4Jrjcz4mb6CtL6S4fCvj/3u4lmnL+NUYAAAAASUVORK5CYII=;" vertex="1" parent="1">
          <mxGeometry x="130" y="400" width="31.57" height="30" as="geometry" />
        </mxCell>
        <mxCell id="cxmttkt3zN2YbT3HG3Pw-18" style="edgeStyle=orthogonalEdgeStyle;rounded=0;orthogonalLoop=1;jettySize=auto;html=1;entryX=0.5;entryY=0;entryDx=0;entryDy=0;" edge="1" parent="1" source="cxmttkt3zN2YbT3HG3Pw-8" target="cxmttkt3zN2YbT3HG3Pw-17">
          <mxGeometry relative="1" as="geometry" />
        </mxCell>
        <mxCell id="cxmttkt3zN2YbT3HG3Pw-8" value="" style="verticalLabelPosition=bottom;html=1;verticalAlign=top;align=center;strokeColor=none;fillColor=#00BEF2;shape=mxgraph.azure.github_code;pointerEvents=1;" vertex="1" parent="1">
          <mxGeometry x="410" y="160" width="120" height="105" as="geometry" />
        </mxCell>
        <mxCell id="cxmttkt3zN2YbT3HG3Pw-13" value="" style="endArrow=classic;html=1;rounded=0;entryX=0.003;entryY=0.446;entryDx=0;entryDy=0;entryPerimeter=0;exitX=0.481;exitY=0.031;exitDx=0;exitDy=0;exitPerimeter=0;jumpSize=10;" edge="1" parent="1" source="cxmttkt3zN2YbT3HG3Pw-2" target="cxmttkt3zN2YbT3HG3Pw-8">
          <mxGeometry width="50" height="50" relative="1" as="geometry">
            <mxPoint x="232" y="310" as="sourcePoint" />
            <mxPoint x="450" y="280" as="targetPoint" />
            <Array as="points">
              <mxPoint x="226" y="207" />
            </Array>
          </mxGeometry>
        </mxCell>
        <mxCell id="cxmttkt3zN2YbT3HG3Pw-14" value="&lt;b&gt;git add&lt;/b&gt;" style="text;html=1;align=center;verticalAlign=middle;resizable=0;points=[];autosize=1;strokeColor=none;fillColor=none;" vertex="1" parent="1">
          <mxGeometry x="180" y="390" width="60" height="30" as="geometry" />
        </mxCell>
        <mxCell id="cxmttkt3zN2YbT3HG3Pw-15" value="&lt;b&gt;git commit&amp;nbsp;&lt;/b&gt;" style="text;html=1;align=center;verticalAlign=middle;resizable=0;points=[];autosize=1;strokeColor=none;fillColor=none;" vertex="1" parent="1">
          <mxGeometry x="260" y="360" width="90" height="30" as="geometry" />
        </mxCell>
        <mxCell id="cxmttkt3zN2YbT3HG3Pw-16" value="&lt;b&gt;git push&lt;/b&gt;" style="text;html=1;align=center;verticalAlign=middle;resizable=0;points=[];autosize=1;strokeColor=none;fillColor=none;" vertex="1" parent="1">
          <mxGeometry x="280" y="180" width="70" height="30" as="geometry" />
        </mxCell>
        <mxCell id="cxmttkt3zN2YbT3HG3Pw-17" value="&lt;b&gt;Linux Server&lt;/b&gt;" style="rounded=1;whiteSpace=wrap;html=1;fillColor=#d5e8d4;gradientColor=#97d077;strokeColor=#82b366;" vertex="1" parent="1">
          <mxGeometry x="600" y="310" width="120" height="180" as="geometry" />
        </mxCell>
        <mxCell id="cxmttkt3zN2YbT3HG3Pw-19" value="&lt;b&gt;git pull&lt;/b&gt;" style="text;html=1;align=center;verticalAlign=middle;resizable=0;points=[];autosize=1;strokeColor=none;fillColor=none;" vertex="1" parent="1">
          <mxGeometry x="600" y="235" width="60" height="30" as="geometry" />
        </mxCell>
      </root>
    </mxGraphModel>
  </diagram>
</mxfile>
